<?xml version="1.0" encoding="UTF-8" standalone="no"?>
<!DOCTYPE svg PUBLIC "-//W3C//DTD SVG 1.1//EN" "http://www.w3.org/Graphics/SVG/1.1/DTD/svg11.dtd">
<svg version="1.1" xmlns="http://www.w3.org/2000/svg" xmlns:xlink="http://www.w3.org/1999/xlink" preserveAspectRatio="xMidYMid meet" viewBox="0 0 640 640" width="100" height="100"><defs><path d="M13.12 117.44C-4.37 94.04 -4.37 56.09 13.12 32.7C30.62 9.3 59 9.3 76.51 32.7C92.75 54.4 173.9 162.92 320 358.28C466.09 162.94 547.25 54.4 563.48 32.7C580.99 9.3 609.36 9.3 626.86 32.7C644.38 56.09 644.38 94.04 626.86 117.46C599.34 154.25 379.2 448.61 351.68 485.41C342.93 497.09 331.46 502.94 320 502.94C308.53 502.94 297.05 497.07 288.31 485.41C260.79 448.6 40.64 154.25 13.12 117.44Z" id="n2ndA6liT1"></path><path d="M13.12 117.44C-4.37 94.04 -4.37 56.09 13.12 32.7C30.62 9.3 59 9.3 76.51 32.7C92.75 54.4 173.9 162.92 320 358.28C466.09 162.94 547.25 54.4 563.48 32.7C580.99 9.3 609.36 9.3 626.86 32.7C644.38 56.09 644.38 94.04 626.86 117.46C599.34 154.25 379.2 448.61 351.68 485.41C342.93 497.09 331.46 502.94 320 502.94C308.53 502.94 297.05 497.07 288.31 485.41C260.79 448.6 40.64 154.25 13.12 117.44Z" id="cC5FTcuZC"></path></defs><g><g><g><use xlink:href="#n2ndA6liT1" opacity="1" fill="#f6f7f6" fill-opacity="1"></use><g><use xlink:href="#n2ndA6liT1" opacity="1" fill-opacity="0" stroke="#000000" stroke-width="1" stroke-opacity="0"></use></g></g><g><use xlink:href="#cC5FTcuZC" opacity="1" fill="#000000" fill-opacity="0"></use><g><use xlink:href="#cC5FTcuZC" opacity="1" fill-opacity="0" stroke="#000000" stroke-width="1" stroke-opacity="0"></use></g></g></g></g></svg>