<?xml version="1.0" encoding="UTF-8" standalone="no"?>
<!DOCTYPE svg PUBLIC "-//W3C//DTD SVG 1.1//EN" "http://www.w3.org/Graphics/SVG/1.1/DTD/svg11.dtd">
<svg version="1.1" xmlns="http://www.w3.org/2000/svg" xmlns:xlink="http://www.w3.org/1999/xlink" preserveAspectRatio="xMidYMid meet" viewBox="0 0 640 640" width="100" height="100"><defs><path d="M320 420.87C263.08 420.87 216.8 373.37 216.8 314.98C216.8 256.58 263.08 209.08 320 209.08C376.92 209.08 423.22 256.6 423.22 314.98C423.22 373.37 376.92 420.87 320 420.87ZM640 465.38C640 505.48 608.31 537.99 569.23 537.99C519.38 537.99 120.62 537.99 70.77 537.99C31.69 537.99 0 505.48 0 465.38C0 435.3 0 194.68 0 164.61C0 124.51 31.69 92 70.77 92C76.57 92 105.59 92 157.82 92C157.82 76.92 157.82 68.55 157.82 66.88C157.82 31.79 185.52 3.34 219.74 3.34C239.79 3.34 400.21 3.34 420.26 3.34C454.48 3.34 482.18 31.79 482.18 66.88C482.18 68.55 482.18 76.92 482.18 91.98C534.41 91.98 563.43 91.98 569.23 91.98C608.31 92 640 124.51 640 164.61C640 224.76 640 435.3 640 465.38ZM320 154.62C233.84 154.62 163.72 226.56 163.72 314.98C163.72 403.39 233.84 475.33 320 475.33C406.18 475.33 476.29 403.39 476.29 314.98C476.29 226.56 406.18 154.62 320 154.62Z" id="bxHhW0NXc"></path></defs><g><g><g><use xlink:href="#bxHhW0NXc" opacity="1" fill="#f6f7f6" fill-opacity="1"></use><g><use xlink:href="#bxHhW0NXc" opacity="1" fill-opacity="0" stroke="#000000" stroke-width="1" stroke-opacity="0"></use></g></g></g></g></svg>