<?xml version="1.0" encoding="UTF-8" standalone="no"?>
<!DOCTYPE svg PUBLIC "-//W3C//DTD SVG 1.1//EN" "http://www.w3.org/Graphics/SVG/1.1/DTD/svg11.dtd">
<svg version="1.1" xmlns="http://www.w3.org/2000/svg" xmlns:xlink="http://www.w3.org/1999/xlink" preserveAspectRatio="xMidYMid meet" viewBox="0 0 640 640" width="640" height="640"><defs><path d="M467.3 6.33C437.44 6.33 198.56 6.33 168.7 6.33C133.32 6.33 102.72 29.98 92.54 65.19C88.08 80.63 52.4 204.18 47.94 219.63C19.78 232.33 0 261.45 0 295.33C0 311.85 0 443.96 0 460.48C0 483.27 17.8 501.76 39.75 501.76C39.75 501.76 39.75 501.76 39.75 501.76C39.75 526.53 39.75 540.29 39.75 543.05C39.75 565.85 57.55 584.33 79.5 584.33C83.47 584.33 115.27 584.33 119.25 584.33C141.2 584.33 159 565.85 159 543.05C159 540.3 159 526.53 158.99 501.76C190.79 501.76 445.2 501.76 477 501.76C477 526.53 477 540.29 477 543.05C477 565.85 494.79 584.33 516.75 584.33C520.72 584.33 552.52 584.33 556.5 584.33C578.45 584.33 596.25 565.85 596.25 543.05C596.25 540.3 596.25 526.53 596.25 501.76C596.25 501.76 596.24 501.76 596.24 501.76C596.25 501.76 596.25 501.76 596.25 501.76C618.2 501.76 636 483.27 636 460.48C636 443.96 636 311.85 636 295.33C636 261.45 616.22 232.33 588.06 219.63C588.06 219.63 547.92 80.63 543.46 65.19C533.28 29.98 502.68 6.33 467.3 6.33ZM503.07 212.76L132.93 212.76L168.7 88.9L467.3 88.9L503.07 212.76ZM159 315.98C180.95 315.98 198.75 334.46 198.75 357.26C198.75 380.06 180.95 398.55 159 398.55C137.05 398.55 119.25 380.06 119.25 357.26C119.25 334.46 137.05 315.98 159 315.98ZM477 315.98C498.95 315.98 516.75 334.46 516.75 357.26C516.75 380.06 498.95 398.55 477 398.55C455.05 398.55 437.25 380.06 437.25 357.26C437.25 334.46 455.05 315.98 477 315.98Z" id="a4pu1ETyAd"></path><path d="M467.3 6.33C437.44 6.33 198.56 6.33 168.7 6.33C133.32 6.33 102.72 29.98 92.54 65.19C88.08 80.63 52.4 204.18 47.94 219.63C19.78 232.33 0 261.45 0 295.33C0 311.85 0 443.96 0 460.48C0 483.27 17.8 501.76 39.75 501.76C39.75 501.76 39.75 501.76 39.75 501.76C39.75 526.53 39.75 540.29 39.75 543.05C39.75 565.85 57.55 584.33 79.5 584.33C83.47 584.33 115.27 584.33 119.25 584.33C141.2 584.33 159 565.85 159 543.05C159 540.3 159 526.53 158.99 501.76C190.79 501.76 445.2 501.76 477 501.76C477 526.53 477 540.29 477 543.05C477 565.85 494.79 584.33 516.75 584.33C520.72 584.33 552.52 584.33 556.5 584.33C578.45 584.33 596.25 565.85 596.25 543.05C596.25 540.3 596.25 526.53 596.25 501.76C596.25 501.76 596.24 501.76 596.24 501.76C596.25 501.76 596.25 501.76 596.25 501.76C618.2 501.76 636 483.27 636 460.48C636 443.96 636 311.85 636 295.33C636 261.45 616.22 232.33 588.06 219.63C588.06 219.63 547.92 80.63 543.46 65.19C533.28 29.98 502.68 6.33 467.3 6.33ZM503.07 212.76L132.93 212.76L168.7 88.9L467.3 88.9L503.07 212.76ZM159 315.98C180.95 315.98 198.75 334.46 198.75 357.26C198.75 380.06 180.95 398.55 159 398.55C137.05 398.55 119.25 380.06 119.25 357.26C119.25 334.46 137.05 315.98 159 315.98ZM477 315.98C498.95 315.98 516.75 334.46 516.75 357.26C516.75 380.06 498.95 398.55 477 398.55C455.05 398.55 437.25 380.06 437.25 357.26C437.25 334.46 455.05 315.98 477 315.98Z" id="b3fHnStLKA"></path></defs><g><g><g><use xlink:href="#a4pu1ETyAd" opacity="1" fill="#f6f7f6" fill-opacity="1"></use><g><use xlink:href="#a4pu1ETyAd" opacity="1" fill-opacity="0" stroke="#000000" stroke-width="1" stroke-opacity="0"></use></g></g><g><use xlink:href="#b3fHnStLKA" opacity="1" fill="#000000" fill-opacity="0"></use><g><use xlink:href="#b3fHnStLKA" opacity="1" fill-opacity="0" stroke="#000000" stroke-width="1" stroke-opacity="0"></use></g></g></g></g></svg>