<?xml version="1.0" encoding="UTF-8" standalone="no"?>
<!DOCTYPE svg PUBLIC "-//W3C//DTD SVG 1.1//EN" "http://www.w3.org/Graphics/SVG/1.1/DTD/svg11.dtd">
<svg version="1.1" xmlns="http://www.w3.org/2000/svg" xmlns:xlink="http://www.w3.org/1999/xlink" preserveAspectRatio="xMidYMid meet" viewBox="0 0 640 640" width="100" height="100"><defs><path d="M394.44 54.18C394.44 24.26 370.19 0 340.24 0C310.34 0 286.06 24.26 286.06 54.18C286.06 84.12 310.34 108.38 340.24 108.38C370.19 108.38 394.44 84.12 394.44 54.18Z" id="b334kJAPAN"></path><path d="M505.85 252.14C499.55 252.14 468.03 252.14 411.29 252.14L357.97 176.43C358.07 175.66 358.13 175.23 358.14 175.14C360.05 160.68 356.11 146.05 347.22 134.48C338.33 122.92 325.22 115.36 310.76 113.46C294.75 111.37 279.56 116.53 268.16 126.19C268.16 119.9 268.16 69.51 268.16 63.21C268.16 52.38 259.37 43.58 248.52 43.58C243.08 43.58 199.56 43.58 194.12 43.58C183.26 43.58 174.48 52.38 174.48 63.21C174.48 86.54 174.48 273.17 174.48 296.5C174.48 325.05 196.33 348.24 224.16 350.96C223.88 351.61 222.48 354.87 219.96 360.73L187.02 485.19C142.5 544.99 117.77 578.22 112.83 584.86C101.77 599.73 104.83 620.75 119.71 631.81C125.71 636.29 132.75 638.45 139.72 638.45C149.96 638.45 160.05 633.78 166.66 624.93C174.46 614.44 236.91 530.55 244.71 520.07C247.27 516.64 249.15 512.75 250.24 508.62C251.74 502.97 259.22 474.7 272.7 423.82L334.17 480.26C329.14 553.67 326.34 594.45 325.78 602.6C324.52 621.1 338.45 637.11 356.96 638.38C357.72 638.43 358.51 638.45 359.29 638.45C376.78 638.45 391.52 624.9 392.72 607.19C393.67 593.35 401.27 482.59 402.22 468.75C402.92 458.58 398.95 448.63 391.43 441.74C387.2 437.85 366.03 418.42 327.92 383.44L347.24 258.32C363.26 281.05 372.16 293.68 373.94 296.21C379.18 303.64 387.71 308.07 396.79 308.07C403.32 308.07 435.94 308.07 494.66 308.07C495.77 500.52 496.39 607.43 496.51 628.82C496.51 635 501.52 640 507.7 640C513.88 640 518.88 635 518.88 628.82C518.7 596.5 517.22 337.98 517.03 305.66C526.89 301.35 533.81 291.55 533.81 280.1C533.81 264.66 521.3 252.14 505.85 252.14Z" id="a3hkPZ1HeN"></path></defs><g><g><g><use xlink:href="#b334kJAPAN" opacity="1" fill="#f6f7f6" fill-opacity="1"></use><g><use xlink:href="#b334kJAPAN" opacity="1" fill-opacity="0" stroke="#000000" stroke-width="1" stroke-opacity="0"></use></g></g><g><use xlink:href="#a3hkPZ1HeN" opacity="1" fill="#f6f7f6" fill-opacity="1"></use><g><use xlink:href="#a3hkPZ1HeN" opacity="1" fill-opacity="0" stroke="#000000" stroke-width="1" stroke-opacity="0"></use></g></g></g></g></svg>