<?xml version="1.0" encoding="UTF-8" standalone="no"?>
<!DOCTYPE svg PUBLIC "-//W3C//DTD SVG 1.1//EN" "http://www.w3.org/Graphics/SVG/1.1/DTD/svg11.dtd">
<svg version="1.1" xmlns="http://www.w3.org/2000/svg" xmlns:xlink="http://www.w3.org/1999/xlink" preserveAspectRatio="xMidYMid meet" viewBox="0 0 640 640" width="100" height="100"><defs><path d="M490.52 2.74C503.88 2.74 516.43 6.34 525.81 12.87C528.8 14.95 552.72 31.59 555.71 33.66C575.17 47.21 575.17 69.22 555.71 82.76C532.98 98.56 419.33 177.6 214.78 319.87C419.56 462.29 533.33 541.42 556.08 557.24C565.48 563.79 570.67 572.49 570.67 581.78C570.67 591.09 565.48 599.8 556.08 606.34C553.1 608.42 529.18 625.05 526.19 627.13C516.8 633.66 504.27 637.26 490.89 637.26C477.54 637.26 464.99 633.66 455.6 627.13C414.97 598.86 89.86 372.76 49.22 344.5C39.81 337.95 34.64 329.19 34.67 319.88C34.64 310.54 39.81 301.8 49.22 295.24C130.42 238.77 414.63 41.11 455.23 12.87C464.62 6.34 477.15 2.74 490.52 2.74Z" id="a1EKwO7PEt"></path></defs><g><g><g><use xlink:href="#a1EKwO7PEt" opacity="1" fill="#ef5510" fill-opacity="1"></use><g><use xlink:href="#a1EKwO7PEt" opacity="1" fill-opacity="0" stroke="#000000" stroke-width="1" stroke-opacity="0"></use></g></g></g></g></svg>