<?xml version="1.0" encoding="UTF-8" standalone="no"?>
<!DOCTYPE svg PUBLIC "-//W3C//DTD SVG 1.1//EN" "http://www.w3.org/Graphics/SVG/1.1/DTD/svg11.dtd">
<svg version="1.1" xmlns="http://www.w3.org/2000/svg" xmlns:xlink="http://www.w3.org/1999/xlink" preserveAspectRatio="xMidYMid meet" viewBox="0 0 640 640" width="100" height="100"><defs><path d="M78.1 10.22C74.79 12.32 48.37 29.1 45.07 31.19C23.58 44.86 23.58 67.06 45.07 80.71C70.18 96.65 195.69 176.37 421.59 319.87C195.43 463.52 69.78 543.33 44.66 559.29C34.29 565.9 28.56 574.67 28.56 584.04C28.56 593.43 34.29 602.22 44.66 608.81C47.95 610.91 74.37 627.68 77.68 629.78C88.05 636.37 101.89 640 116.66 640C131.41 640 145.26 636.37 155.63 629.78C200.51 601.28 559.56 373.23 604.43 344.71C614.83 338.11 620.54 329.27 620.52 319.88C620.54 310.46 614.83 301.64 604.43 295.04C514.77 238.07 200.87 38.7 156.04 10.22C145.67 3.63 131.83 0 117.06 0C102.31 0 88.45 3.63 78.1 10.22Z" id="ae9yILLLX"></path><path d="M78.1 10.22C74.79 12.32 48.37 29.1 45.07 31.19C23.58 44.86 23.58 67.06 45.07 80.71C70.18 96.65 195.69 176.37 421.59 319.87C195.43 463.52 69.78 543.33 44.66 559.29C34.29 565.9 28.56 574.67 28.56 584.04C28.56 593.43 34.29 602.22 44.66 608.81C47.95 610.91 74.37 627.68 77.68 629.78C88.05 636.37 101.89 640 116.66 640C131.41 640 145.26 636.37 155.63 629.78C200.51 601.28 559.56 373.23 604.43 344.71C614.83 338.11 620.54 329.27 620.52 319.88C620.54 310.46 614.83 301.64 604.43 295.04C514.77 238.07 200.87 38.7 156.04 10.22C145.67 3.63 131.83 0 117.06 0C102.31 0 88.45 3.63 78.1 10.22Z" id="bcBK3ECr0"></path><path d="M78.1 10.22C74.79 12.32 48.37 29.1 45.07 31.19C23.58 44.86 23.58 67.06 45.07 80.71C70.18 96.65 195.69 176.37 421.59 319.87C195.43 463.52 69.78 543.33 44.66 559.29C34.29 565.9 28.56 574.67 28.56 584.04C28.56 593.43 34.29 602.22 44.66 608.81C47.95 610.91 74.37 627.68 77.68 629.78C88.05 636.37 101.89 640 116.66 640C131.41 640 145.26 636.37 155.63 629.78C200.51 601.28 559.56 373.23 604.43 344.71C614.83 338.11 620.54 329.27 620.52 319.88C620.54 310.46 614.83 301.64 604.43 295.04C514.77 238.07 200.87 38.7 156.04 10.22C145.67 3.63 131.83 0 117.06 0C102.31 0 88.45 3.63 78.1 10.22Z" id="dpJMlLF7c"></path><path d="M78.1 10.22C74.79 12.32 48.37 29.1 45.07 31.19C23.58 44.86 23.58 67.06 45.07 80.71C70.18 96.65 195.69 176.37 421.59 319.87C195.43 463.52 69.78 543.33 44.66 559.29C34.29 565.9 28.56 574.67 28.56 584.04C28.56 593.43 34.29 602.22 44.66 608.81C47.95 610.91 74.37 627.68 77.68 629.78C88.05 636.37 101.89 640 116.66 640C131.41 640 145.26 636.37 155.63 629.78C200.51 601.28 559.56 373.23 604.43 344.71C614.83 338.11 620.54 329.27 620.52 319.88C620.54 310.46 614.83 301.64 604.43 295.04C514.77 238.07 200.87 38.7 156.04 10.22C145.67 3.63 131.83 0 117.06 0C102.31 0 88.45 3.63 78.1 10.22Z" id="e10fY3t7JX"></path></defs><g><g><g><use xlink:href="#ae9yILLLX" opacity="1" fill="#ef5510" fill-opacity="1"></use><g><use xlink:href="#ae9yILLLX" opacity="1" fill-opacity="0" stroke="#000000" stroke-width="1" stroke-opacity="0"></use></g></g><g><use xlink:href="#bcBK3ECr0" opacity="1" fill="#000000" fill-opacity="0"></use><g><use xlink:href="#bcBK3ECr0" opacity="1" fill-opacity="0" stroke="#000000" stroke-width="1" stroke-opacity="0"></use></g></g><g><use xlink:href="#dpJMlLF7c" opacity="1" fill="#ef5510" fill-opacity="1"></use><g><use xlink:href="#dpJMlLF7c" opacity="1" fill-opacity="0" stroke="#000000" stroke-width="1" stroke-opacity="0"></use></g></g><g><use xlink:href="#e10fY3t7JX" opacity="1" fill="#000000" fill-opacity="0"></use><g><use xlink:href="#e10fY3t7JX" opacity="1" fill-opacity="0" stroke="#000000" stroke-width="1" stroke-opacity="0"></use></g></g></g></g></svg>